#!OML:ASF Y:\EmotionMaleHayes\Project 1\Capture day 1\Session 1\Male1.ASF
:FULLY-SPECIFIED
:DEGREES
920
root 11.5888 16.4218 17.7064 428.719 83.3893 428.934
lowerback 8.91129 0.882778 -10.0631
upperback 3.32284 0.433384 -1.99469
thorax -1.55871 0.244497 3.5196
lowerneck -20.5126 3.23137 5.59469
upperneck 24.9761 4.60506 -5.63573
head 11.8634 1.96477 -2.28041
rclavicle -4.52235e-015 3.18055e-015
rhumerus -42.937 -8.91392 -79.6748
rradius 25.9137
rwrist 12.1431
rhand -7.68175 -30.8969
rfingers 7.12502
rthumb 18.215 -60.064
lclavicle -4.52235e-015 3.18055e-015
lhumerus -32.0146 -20.3466 95.1167
lradius 50.0881
lwrist -0.196963
lhand -19.0454 -25.1107
lfingers 7.12502
lthumb 7.26134 4.74468
rfemur -24.5732 2.12945 10.6644
rtibia 30.0621
rfoot -10.3516 0.416327
rtoes 8.12784
lfemur 21.5039 -10.5186 -38.6283
ltibia 14.3484
lfoot -14.0089 -13.1471
ltoes 35.5992
921
root 11.7351 16.4209 17.7404 429.44 83.4142 429.788
lowerback 8.78064 0.869153 -9.91747
upperback 3.43357 0.45365 -1.8508
thorax -1.37386 0.242213 3.58877
lowerneck -20.6887 3.04916 5.1314
upperneck 25.0226 4.35137 -5.16187
head 11.8746 1.86347 -2.06555
rclavicle 2.28602e-015 1.78906e-014
rhumerus -42.937 -8.91392 -79.6748
rradius 25.9137
rwrist 12.1431
rhand -7.68175 -30.8969
rfingers 7.12502
rthumb 18.215 -60.064
lclavicle 2.28602e-015 1.78906e-014
lhumerus -32.5634 -19.4733 95.1914
lradius 49.1301
lwrist -0.825073
lhand -19.6702 -24.8723
lfingers 7.12502
lthumb 6.65819 5.003
rfemur -24.2844 2.10859 10.7988
rtibia 30.8299
rfoot -11.0751 0.584635
rtoes 6.90571
lfemur 21.5576 -10.3708 -38.5268
ltibia 15.5227
lfoot -13.1107 -13.2448
ltoes 35.312
922
root 11.8803 16.4288 17.7773 428.726 83.6811 429.206
lowerback 8.71723 0.85818 -9.42669
upperback 3.47457 0.487169 -1.69977
thorax -1.30262 0.254267 3.47119
lowerneck -20.3076 3.14665 5.42558
upperneck 24.7525 4.53829 -5.64242
head 11.7279 1.9213 -2.26384
rclavicle 6.95746e-016 -6.75868e-015
rhumerus -42.937 -8.91392 -79.6748
rradius 25.9137
rwrist 12.1431
rhand -7.68175 -30.8969
rfingers 7.12502
rthumb 18.215 -60.064
lclavicle 6.95746e-016 -6.75868e-015
lhumerus -33.032 -18.6219 95.1421
lradius 47.6973
lwrist -1.42307
lhand -19.9919 -24.7932
lfingers 7.12502
lthumb 6.34766 5.09166
rfemur -23.7287 2.36754 11.2772
rtibia 31.2357
rfoot -11.9456 0.665973
rtoes 6.34
lfemur 21.4639 -10.0537 -37.874
ltibia 16.8086
lfoot -12.1636 -13.467
ltoes 34.3926
923
root 12.0213 16.4422 17.8108 427.322 84.0518 427.902
lowerback 8.80423 0.879949 -8.70132
upperback 3.36442 0.550499 -1.57871
thorax -1.47637 0.295159 3.18614
lowerneck -19.7461 3.05615 5.58285
upperneck 24.5367 4.45172 -5.88869
head 11.5393 1.87915 -2.39666
rclavicle -5.36719e-015 1.96797e-014
rhumerus -42.937 -8.91392 -79.6748
rradius 25.9137
rwrist 12.1431
rhand -7.68175 -30.8969
rfingers 7.12502
rthumb 18.215 -60.064
lclavicle -5.36719e-015 1.96797e-014
lhumerus -33.827 -17.7716 95.0655
lradius 46.363
lwrist -2.10145
lhand -19.6407 -24.5095
lfingers 7.12502
lthumb 6.68666 5.36491
rfemur -23.108 2.53484 11.915
rtibia 31.5278
rfoot -12.8591 0.665672
rtoes 5.35863
lfemur 21.1976 -9.60922 -36.9412
ltibia 18.2204
lfoot -10.9884 -13.7442
ltoes 33.8684
924
root 12.1697 16.4581 17.8365 427.253 83.9679 427.94
lowerback 8.85482 0.903509 -8.50716
upperback 3.34501 0.589663 -1.49897
thorax -1.53002 0.316461 3.15656
lowerneck -20.1532 3.13628 5.60251
upperneck 25.1899 4.64196 -6.04638
head 11.889 1.94354 -2.4344
rclavicle 2.98177e-016 8.34896e-015
rhumerus -42.937 -8.91392 -79.6748
rradius 25.9137
rwrist 12.1431
rhand -7.68175 -30.8969
rfingers 7.12502
rthumb 18.215 -60.064
lclavicle 2.98177e-016 8.34896e-015
lhumerus -34.3978 -16.8218 94.9952
lradius 44.9841
lwrist -2.81454
lhand -19.4455 -24.2013
lfingers 7.12502
lthumb 6.8751 5.66704
rfemur -22.386 2.44902 11.9409
rtibia 31.6804
rfoot -13.6655 0.946494
rtoes 5.63463
lfemur 20.7979 -9.00073 -36.5747
ltibia 19.8764
lfoot -9.41781 -14.0684
ltoes 34.172
925
root 12.3167 16.474 17.8648 426.659 83.9582 427.497
lowerback 9.05645 1.0158 -8.10141
upperback 3.26328 0.743458 -1.46853
thorax -1.74388 0.402849 2.94324
lowerneck -20.1494 3.20104 5.6934
upperneck 25.3378 4.78693 -6.25964
head 11.9648 1.99297 -2.50816
rclavicle -3.23025e-016 -2.0276e-014
rhumerus -42.937 -8.91392 -79.6748
rradius 25.9137
rwrist 12.1431
rhand -7.68175 -30.8969
rfingers 7.12502
rthumb 18.215 -60.064
lclavicle -3.23025e-016 -2.0276e-014
lhumerus -34.9265 -16.1206 94.9367
lradius 43.2808
lwrist -3.40167
lhand -19.4394 -24.3404
lfingers 7.12502
lthumb 6.88099 5.52776
rfemur -21.5365 2.57872 12.0751
rtibia 31.6208
rfoot -14.3364 1.17496
rtoes 7.19394
lfemur 20.2384 -8.25495 -35.9714
ltibia 21.8467
lfoot -7.44506 -14.4358
ltoes 35.2844
926
root 12.4578 16.4933 17.8935 426.421 84.0769 427.442
lowerback 9.44484 1.10834 -7.55054
upperback 3.1442 0.865917 -1.46762
thorax -2.09269 0.478381 2.61743
lowerneck -20.2877 3.08286 5.77244
upperneck 25.5568 4.62474 -6.33061
head 12.0696 1.91847 -2.57803
rclavicle 1.25234e-014 1.60022e-014
rhumerus -42.937 -8.91392 -79.6748
rradius 25.9137
rwrist 12.1431
rhand -7.68175 -30.8969
rfingers 7.12502
rthumb 18.215 -60.064
lclavicle 1.25234e-014 1.60022e-014
lhumerus -35.5491 -15.2944 94.7211
lradius 41.7419
lwrist -3.98672
lhand -18.9229 -24.1413
lfingers 7.12502
lthumb 7.37956 5.71003
rfemur -20.5513 2.58654 12.3442
rtibia 31.3096
rfoot -14.7948 1.29375
rtoes 7.15029
lfemur 19.5164 -7.48396 -35.117
ltibia 24.0694
lfoot -5.26729 -14.7603
ltoes 36.4285
927
root 12.5999 16.5176 17.9195 426.354 84.202 427.554
lowerback 9.11714 1.07661 -7.19433
upperback 3.49523 0.914836 -1.34691
thorax -1.54847 0.480636 2.5463
lowerneck -20.5086 3.19456 5.71142
upperneck 25.5039 4.78696 -6.33987
head 12.1043 1.97706 -2.5423
rclavicle -5.09386e-015 2.72335e-014
rhumerus -42.937 -8.91392 -79.6748
rradius 25.9137
rwrist 12.1431
rhand -7.68175 -30.8969
rfingers 7.12502
rthumb 18.215 -60.064
lclavicle -5.09386e-015 2.72335e-014
lhumerus -35.4492 -14.2703 94.3403
lradius 40.2231
lwrist -4.61965
lhand -18.2897 -23.7013
lfingers 7.12502
lthumb 7.99069 6.12765
rfemur -19.3682 2.42907 12.6001
rtibia 30.6595
rfoot -15.0618 1.49433
rtoes 5.92002
lfemur 18.7189 -6.73822 -34.265
ltibia 26.3535
lfoot -3.06449 -15.0509
ltoes 36.961
928
root 12.7349 16.5434 17.9486 423.73 84.5575 425.047
lowerback 9.12202 1.16513 -6.4786
upperback 3.58157 1.09819 -1.17214
thorax -1.47428 0.569842 2.30918
lowerneck -20.7064 3.12025 5.72221
upperneck 25.6375 4.73156 -6.51625
head 12.1976 1.92757 -2.62185
rclavicle 4.72114e-016 2.07233e-014
rhumerus -42.937 -8.91392 -79.6748
rradius 25.9137
rwrist 12.1431
rhand -7.68175 -30.8969
rfingers 7.12502
rthumb 18.215 -60.064
lclavicle 4.72114e-016 2.07233e-014
lhumerus -35.6083 -13.4687 94.0801
lradius 38.6236
lwrist -5.03309
lhand -17.5858 -23.2605
lfingers 7.12502
lthumb 8.67003 6.54148
rfemur -18.3408 2.60959 13.2771
rtibia 30.1284
rfoot -15.4399 1.60344
rtoes 4.85557
lfemur 17.7212 -5.90371 -32.9514
ltibia 28.727
lfoot -0.409254 -15.3775
ltoes 38.6563
929
root 12.854 16.5693 17.9844 417.217 85.0769 418.583
lowerback 9.39289 1.30962 -5.57507
upperback 3.49144 1.3409 -0.884001
thorax -1.73104 0.698503 2.0704
lowerneck -20.8325 3.04219 5.65298
upperneck 25.9263 4.67285 -6.5372
head 12.3311 1.89229 -2.63222
rclavicle 4.63417e-015 -2.70844e-015
rhumerus -42.937 -8.91392 -79.6748
rradius 25.9137
rwrist 12.1431
rhand -7.68175 -30.8969
rfingers 7.12502
rthumb 18.215 -60.064
lclavicle 4.63417e-015 -2.70844e-015
lhumerus -35.975 -12.507 93.8347
lradius 36.6756
lwrist -6.36687
lhand -17.989 -23.4028
lfingers 7.12502
lthumb 8.28094 6.41491
rfemur -17.6363 3.29333 14.4142
rtibia 29.8426
rfoot -15.9213 1.47276
rtoes 4.60829
lfemur 16.4641 -4.90061 -31.1138
ltibia 31.1344
lfoot 2.94653 -15.2982
ltoes 40.5658
930
root 12.9786 16.5937 18.0259 408.691 85.6512 410.226
lowerback 9.67602 1.38138 -4.68201
upperback 3.42586 1.49798 -0.524014
thorax -1.95894 0.781593 1.91878
lowerneck -20.7193 2.89918 5.61103
upperneck 26.1127 4.53522 -6.6137
head 12.3723 1.82302 -2.68121
rclavicle 8.69683e-017 1.23246e-014
rhumerus -42.937 -8.91392 -79.6748
rradius 25.9137
rwrist 12.1431
rhand -7.68175 -30.8969
rfingers 7.12502
rthumb 18.215 -60.064
lclavicle 8.69683e-017 1.23246e-014
lhumerus -36.329 -11.3673 93.4604
lradius 34.8874
lwrist -7.22218
lhand -17.8985 -23.4665
lfingers 7.12502
lthumb 8.36834 6.34773
rfemur -16.6381 4.14131 15.7583
rtibia 29.3317
rfoot -16.3818 1.1244
rtoes 4.43783
lfemur 15.3787 -3.97462 -29.1072
ltibia 33.389
lfoot 6.40827 -14.8341
ltoes 40.043
931
root 13.1113 16.6203 18.0639 402.035 86.1674 403.861
lowerback 9.92599 1.43225 -3.87634
upperback 3.47667 1.63647 -0.247433
thorax -2.04219 0.852724 1.73234
lowerneck -20.8081 2.61912 5.44461
upperneck 26.307 4.16754 -6.49789
head 12.4318 1.65821 -2.67412
rclavicle -3.68994e-015 9.74045e-015
rhumerus -42.937 -8.91392 -79.6748
rradius 25.9137
rwrist 12.1431
rhand -7.68175 -30.8969
rfingers 7.12502
rthumb 18.215 -60.064
lclavicle -3.68994e-015 9.74045e-015
lhumerus -36.5636 -10.5591 93.0838
lradius 33.1862
lwrist -7.99787
lhand -17.7179 -23.2883
lfingers 7.12502
lthumb 8.54258 6.51892
rfemur -15.3058 4.59213 16.8457
rtibia 28.6265
rfoot -16.7621 0.921131
rtoes 4.2304
lfemur 14.4371 -3.31134 -27.4362
ltibia 35.6844
lfoot 9.40438 -14.6877
ltoes 38.8074
932
root 13.2233 16.6539 18.0971 395.284 86.6482 397.241
lowerback 10.3382 1.50118 -3.04048
upperback 3.43498 1.79649 -0.0453733
thorax -2.30537 0.937607 1.44239
lowerneck -20.6691 2.98548 5.85664
upperneck 26.5018 4.6408 -6.67247
head 12.5332 1.89456 -2.73457
rclavicle 3.52843e-015 -8.94531e-015
rhumerus -42.937 -8.91392 -79.6748
rradius 25.9137
rwrist 12.1431
rhand -7.68175 -30.8969
rfingers 7.12502
rthumb 18.215 -60.064
lclavicle 3.52843e-015 -8.94531e-015
lhumerus -36.9726 -9.96773 92.6891
lradius 31.7198
lwrist -9.02457
lhand -16.9879 -22.5598
lfingers 7.12502
lthumb 9.24701 7.2174
rfemur -14.2822 4.80269 17.7954
rtibia 27.9943
rfoot -17.0458 0.776222
rtoes 3.80223
lfemur 13.0759 -2.74219 -25.8803
ltibia 38.2329
lfoot 11.7824 -14.7305
ltoes 38.3385
933
root 13.3728 16.6792 18.108 405.776 86.687 407.918
lowerback 10.2364 1.44395 -3.00908
upperback 3.50617 1.72836 -0.179766
thorax -2.16731 0.903235 1.29758
lowerneck -21.1564 2.59518 5.66143
upperneck 26.9679 4.08891 -6.46144
head 12.7657 1.65089 -2.72288
rclavicle 4.07509e-015 8.94531e-015
rhumerus -42.937 -8.91392 -79.6748
rradius 25.9137
rwrist 12.1431
rhand -7.68175 -30.8969
rfingers 7.12502
rthumb 18.215 -60.064
lclavicle 4.07509e-015 8.94531e-015
lhumerus -37.4392 -9.25066 92.1908
lradius 30.4293
lwrist -10.1139
lhand -15.8685 -21.7479
lfingers 7.12502
lthumb 10.327 7.97858
rfemur -12.7275 3.85839 17.2144
rtibia 26.8311
rfoot -17.2206 1.38397
rtoes 3.69235
lfemur 12.1084 -2.41607 -25.9766
ltibia 40.3165
lfoot 13.2659 -14.673
ltoes 37.4297
